<svg xmlns="http://www.w3.org/2000/svg" viewBox="0 0 390 92">
  <rect id="Rettangolo_37" data-name="Rettangolo 37" width="390" height="50" transform="translate(0 21)" fill="#2e4958"/>
  <g id="Raggruppa_4" data-name="Raggruppa 4" transform="translate(-6808.044 -436.045)">
    <circle id="Ellisse_8" data-name="Ellisse 8" cx="46" cy="46" r="46" transform="translate(6957.044 436.045)" fill="#fff"/>
    <g id="Livello_1_copia_4" transform="translate(6962.278 460.813)">
      <g id="Raggruppa_1" data-name="Raggruppa 1" transform="translate(0)">
        <path id="Tracciato_1" data-name="Tracciato 1" d="M375.785,348.97c.238.1.477.193.717.285a15.225,15.225,0,0,0,3.112.895c.406.063.808.157,1.215.2a14.892,14.892,0,0,0,2.348.1c.273-.016.548-.014.818-.049.538-.07,1.074-.155,1.61-.244.4-.066.8-.131,1.19-.23.613-.155,1.22-.331,1.826-.51a14.3,14.3,0,0,0,1.939-.75,17.811,17.811,0,0,0,2.858-1.611c.517-.367,1-.78,1.5-1.171a10.3,10.3,0,0,0,1.23-1.152,20.339,20.339,0,0,0,1.41-1.679c.416-.567.788-1.161,1.147-1.765.052-.089.092-.184.137-.277a.959.959,0,0,1,.491.137.365.365,0,0,0,.061.024l.574.275a.745.745,0,0,0,.134.075,2.731,2.731,0,0,1,.982.425.557.557,0,0,0,.125.04c.061.024.12.052.181.078l.238.106.04-.033.063.245a8.7,8.7,0,0,1-.67,1.232,14.837,14.837,0,0,1-1.194,1.674c-.345.414-.675.839-1.041,1.234-.4.435-.823.854-1.258,1.257a15.806,15.806,0,0,1-1.756,1.42c-.458.313-.919.621-1.39.91-.353.216-.724.4-1.089.593a18.746,18.746,0,0,1-2.318,1.053q-1.068.394-2.16.713c-.668.195-1.349.346-2.029.5-.336.075-.68.111-1.022.164s-.667.108-1,.151c-.212.028-.428.026-.639.056a14.952,14.952,0,0,1-2.107.061,10.978,10.978,0,0,1-1.655-.106c-.343-.05-.689-.07-1.032-.122a18.859,18.859,0,0,1-2.518-.54c-.409-.122-.813-.263-1.218-.4a.648.648,0,0,1-.1-.05.858.858,0,0,1-.04-.282,2.585,2.585,0,0,0-.005-.835.689.689,0,0,1,0-.134c.012-.155.026-.308.043-.461.005-.059.021-.117.028-.174a2.642,2.642,0,0,0,.045-.592,1.945,1.945,0,0,1,.01-.569A.175.175,0,0,1,375.785,348.97Z" transform="translate(-341.623 -311.074)" fill="#e42521"/>
        <path id="Tracciato_2" data-name="Tracciato 2" d="M198.859,285.83v3.246H180.95c-.045-.144-.057-2.976-.009-3.246Z" transform="translate(-180.91 -265.497)" fill="#51ad34"/>
        <path id="Tracciato_3" data-name="Tracciato 3" d="M296.694,257.8a8.716,8.716,0,0,1-.16-1.2,10.487,10.487,0,0,1-.09-1.281c0-.369-.038-.74-.03-1.109.007-.346.047-.691.08-1.037.045-.484.085-.969.148-1.451.042-.32.118-.635.183-.952a19.873,19.873,0,0,1,.867-3.079c.084-.221.171-.44.256-.661a.544.544,0,0,1,.176,0,4.975,4.975,0,0,1,.818.3,2.039,2.039,0,0,0,.626.284.37.37,0,0,1,.12.054c.179.1.353.214.536.306.117.057.249.08.369.129.038.016.064.064.1.1-.07.209-.143.416-.209.627-.186.6-.383,1.192-.548,1.794-.1.374-.162.76-.238,1.143-.052.259-.1.519-.144.781-.03.19-.044.381-.064.573-.026.233-.052.466-.077.7a1.542,1.542,0,0,0-.009.155c0,.482-.017.966,0,1.446.016.381.078.76.117,1.14.009.089.005.178.007.266.005.014.009.028.014.042.005.031.01.061.017.092-.049.014-.1.024-.148.04a6.877,6.877,0,0,1-.764.278,1.723,1.723,0,0,0-.539.191.718.718,0,0,1-.127.033c-.294.1-.59.188-.877.3A.525.525,0,0,1,296.694,257.8Z" transform="translate(-276.312 -233.439)" fill="#51ad34"/>
        <path id="Tracciato_4" data-name="Tracciato 4" d="M426.026,173l-.146-.024c.207-.049.118-.2.1-.32a.4.4,0,0,1,.056-.047.539.539,0,0,0,.308-.576.163.163,0,0,1,.068-.124.574.574,0,0,0,.233-.364,1.281,1.281,0,0,1,.08-.205c.165-.322.331-.642.5-.961.052-.1.125-.179.179-.273.016-.03,0-.078-.005-.118.343.04.691.061,1.03.122a15.62,15.62,0,0,1,1.909.435c.5.157,1.008.327,1.509.5.124.042.242.1.364.146.016.113-.063.174-.132.24-.047.045-.115.1-.12.15-.024.226-.195.339-.334.48a1.422,1.422,0,0,0-.247.277c-.068.122-.146.235-.219.353-.063.1-.162.15-.228.231-.164.207-.31.428-.465.644a.461.461,0,0,1-.111.132c-.11.068-.092.153-.059.249-.331-.092-.661-.181-.99-.278a14.476,14.476,0,0,0-1.879-.43c-.44-.07-.881-.146-1.319-.219Z" transform="translate(-383.249 -169.816)" fill="#293278"/>
        <path id="Tracciato_5" data-name="Tracciato 5" d="M313.994,341.958a22.175,22.175,0,0,1-1.38-1.815,23.694,23.694,0,0,1-1.3-2.113c-.035-.064-.057-.134-.087-.2a.164.164,0,0,0,.219-.019c.282-.261.569-.517.858-.769.089-.077.2-.127.282-.209.256-.256.5-.526.754-.78a.6.6,0,0,0,.2-.4c.134.235.275.466.4.707a18.821,18.821,0,0,0,1.213,1.909c.186.271.385.536.578.8a.573.573,0,0,0-.275.247c-.183.294-.378.581-.562.874-.263.416-.524.834-.778,1.255a.476.476,0,0,0-.1.414C314.037,341.884,314.006,341.924,313.994,341.958Z" transform="translate(-288.551 -306.647)" fill="#f9e81e"/>
        <path id="Tracciato_6" data-name="Tracciato 6" d="M460.792,184.714c-.5-.27-.988-.552-1.493-.806-.445-.224-.9-.419-1.359-.628-.059-.028-.115-.061-.174-.092l-.09-.037,0,0a.251.251,0,0,1,.1-.211c.122-.118.244-.235.358-.358.136-.144.27-.292.4-.446.087-.106.153-.23.242-.332.24-.275.486-.548.738-.813.125-.131.209-.332.447-.3.012,0,.03-.03.045-.045l.077.033a.456.456,0,0,1,.05.028c.348.171.7.336,1.046.517a8.281,8.281,0,0,1,.762.442c.388.256.764.527,1.145.792.083.057.165.115.249.171-.024.026-.075.064-.07.078.045.11-.028.155-.092.219-.158.155-.385.225-.515.414-.01.016-.04.019-.057.033-.038.031-.073.068-.113.1-.066.056-.131.113-.2.165s-.151.091-.219.144a2.407,2.407,0,0,1-.388.324,1.145,1.145,0,0,0-.4.339.416.416,0,0,1-.327.188C460.9,184.627,460.846,184.683,460.792,184.714Z" transform="translate(-409.508 -178.613)" fill="#382a84"/>
        <path id="Tracciato_7" data-name="Tracciato 7" d="M330.43,192.58a1.742,1.742,0,0,1,.143-.195c.3-.3.583-.611.894-.894.352-.322.722-.627,1.091-.929.3-.249.609-.487.921-.724a3.9,3.9,0,0,1,.338-.207,3.56,3.56,0,0,0,.059.546c.064.249.167.487.254.729.122.339.244.68.367,1.02.064.179.129.36.2.538.089.223.092.221.324.16-.193.157-.386.311-.578.47a16.474,16.474,0,0,0-1.465,1.344c-.218.23-.437.458-.654.687a.4.4,0,0,1-.282-.226c-.137-.216-.266-.437-.4-.656a.219.219,0,0,0-.068-.084.446.446,0,0,1-.214-.294.515.515,0,0,0-.111-.214,4.586,4.586,0,0,1-.635-.924A.726.726,0,0,0,330.43,192.58Z" transform="translate(-304.409 -186.038)" fill="#66c4df"/>
        <path id="Tracciato_8" data-name="Tracciato 8" d="M306.04,321.029a.591.591,0,0,1-.2.4c-.256.256-.5.524-.754.78-.082.082-.195.132-.282.209-.289.252-.576.508-.858.769a.164.164,0,0,1-.219.019c-.184-.36-.383-.715-.548-1.084q-.352-.786-.665-1.591c-.141-.364-.247-.74-.371-1.109a.484.484,0,0,0,.345-.111,2.333,2.333,0,0,1,.418-.237c.122-.063.254-.11.374-.177a3.782,3.782,0,0,0,.385-.256c.165-.122.388-.144.524-.318.019-.024.071-.019.1-.038.179-.11.355-.223.533-.336.068.195.138.388.2.583a18.664,18.664,0,0,0,.929,2.271C305.984,320.879,306.01,320.955,306.04,321.029Z" transform="translate(-281.043 -292.027)" fill="#cfd600"/>
        <path id="Tracciato_9" data-name="Tracciato 9" d="M394,169.31a4.073,4.073,0,0,1,.4-.085c.5-.057.992-.1,1.488-.16a12.882,12.882,0,0,1,1.7-.073.382.382,0,0,1,.064.01c.007.092.054.212.014.273a1.341,1.341,0,0,0-.178.465c-.07.322-.162.64-.245.959a.158.158,0,0,1-.038.078.622.622,0,0,0-.157.334c-.051.191-.113.379-.172.567-.031.1-.066.195-.1.291-.049.144-.209.037-.284.124l-.762.085c-.059.007-.117.009-.176.012-.118.014-.245-.052-.352.047l0,0-.27.037-1.009.184-.235.042-.047.028c-.03,0-.057.007-.087.009a.959.959,0,0,1-.009-.411c.045-.2.051-.409.077-.613.017-.137.042-.275.064-.412.012-.073.026-.144.042-.216a1.84,1.84,0,0,0,.045-.216c.035-.308.05-.618.1-.921A.767.767,0,0,1,394,169.31Z" transform="translate(-356.531 -168.99)" fill="#244596"/>
        <path id="Tracciato_10" data-name="Tracciato 10" d="M476.73,252.04h.553v3.3a2.638,2.638,0,0,1,2.52-.9,2.432,2.432,0,0,1,1.606,1.032,2.549,2.549,0,0,1-.494,3.489,2.582,2.582,0,0,1-3.62-.421c-.014.346,0,.658-.011.978h-.555Zm2.569,6.975a2.046,2.046,0,0,0,2.057-2.036,2.047,2.047,0,1,0-4.093-.021A2.027,2.027,0,0,0,479.3,259.015Z" transform="translate(-425.249 -237.587)" fill="#33363c"/>
        <path id="Tracciato_11" data-name="Tracciato 11" d="M407.853,257.041h.578c-.024.07-.04.129-.064.185a3.443,3.443,0,0,1-1.643,1.688,3.859,3.859,0,0,1-2.851.315,3.654,3.654,0,0,1-2.556-2.671,3.8,3.8,0,0,1,2.847-4.633,3.729,3.729,0,0,1,4.133,2,3.032,3.032,0,0,1,.127.327.3.3,0,0,1-.077.028c-.141,0-.282,0-.425,0a.345.345,0,0,1-.056-.071,3.187,3.187,0,0,0-2.3-1.73,3.137,3.137,0,0,0-3.465,1.625,3.243,3.243,0,0,0,2.41,4.728,3.284,3.284,0,0,0,3.251-1.625C407.79,257.158,407.818,257.107,407.853,257.041Z" transform="translate(-362.851 -237.426)" fill="#33363c"/>
        <path id="Tracciato_12" data-name="Tracciato 12" d="M475.6,194.105c.054-.031.106-.087.16-.089a.407.407,0,0,0,.327-.188,1.177,1.177,0,0,1,.4-.339,2.4,2.4,0,0,0,.388-.324c.068-.056.15-.094.219-.144s.136-.11.2-.165c.038-.033.073-.07.113-.1.017-.014.045-.016.057-.033.129-.19.357-.259.515-.414.066-.064.138-.11.092-.219-.005-.014.045-.052.07-.078.268.205.538.407.8.616.183.144.364.291.538.445q.412.368.814.748c.106.1.2.216.3.324.012.016.024.033.038.049l.178.186c-.207.306-.58.385-.848.609-.005,0-.016,0-.021.005-.064.035-.131.068-.191.108a2.019,2.019,0,0,1-.4.271,1.18,1.18,0,0,0-.358.205,2.007,2.007,0,0,1-.285.167.852.852,0,0,0-.224.137.392.392,0,0,1-.379.129l-.005-.005-.04-.04c-.353-.291-.694-.6-1.06-.872-.433-.327-.888-.627-1.333-.94A.378.378,0,0,1,475.6,194.105Z" transform="translate(-424.316 -188.004)" fill="#552c86"/>
        <path id="Tracciato_13" data-name="Tracciato 13" d="M360.77,379.638a.176.176,0,0,0-.169.171,1.888,1.888,0,0,0-.01.569,2.633,2.633,0,0,1-.045.592c-.005.059-.021.117-.028.174-.016.153-.03.308-.044.461a.694.694,0,0,0,0,.134,2.587,2.587,0,0,1,.005.835.812.812,0,0,0,.04.282c-.09-.026-.183-.049-.271-.082a22.811,22.811,0,0,1-2.529-1.128c-.125-.064-.242-.141-.364-.212-.1-.176-.009-.35.021-.515.08-.432.2-.854.284-1.284s.153-.835.235-1.251c.019-.1.045-.2.16-.244.376.226.745.463,1.128.677.425.237.861.452,1.293.677C360.572,379.544,360.671,379.59,360.77,379.638Z" transform="translate(-326.609 -341.742)" fill="#e7461e"/>
        <path id="Tracciato_14" data-name="Tracciato 14" d="M502.266,222.255c-.266-.447-.515-.9-.8-1.338-.3-.459-.642-.895-.966-1.34a.414.414,0,0,0,.132-.009c.232-.094.459-.195.687-.294.249-.106.458-.282.722-.367a8.067,8.067,0,0,0,.748-.324.62.62,0,0,0,.419-.423c.075.087.158.169.224.263.242.348.487.694.715,1.051a11.1,11.1,0,0,1,.889,1.573,2.2,2.2,0,0,1-.224.108c-.066.023-.139.023-.207.042-.085.023-.165.057-.251.082a3.262,3.262,0,0,0-.526.155,3.812,3.812,0,0,1-1.11.336.932.932,0,0,0-.4.214c-.044.035-.016.158-.023.242C502.294,222.234,502.277,222.244,502.266,222.255Z" transform="translate(-444.883 -209.603)" fill="#a94290"/>
        <path id="Tracciato_15" data-name="Tracciato 15" d="M332.689,363.769c-.181-.139-.365-.271-.541-.416a16.992,16.992,0,0,1-1.787-1.716c.036-.023.087-.035.106-.066.2-.338.386-.679.573-1.02.23-.421.456-.846.682-1.269.1-.193.2-.388.3-.583.157.167.312.336.468.5.2.216.4.435.609.646.242.245.494.48.741.721a1.623,1.623,0,0,0-.235.317c-.111.263-.191.538-.289.807-.132.367-.27.731-.4,1.1A2.37,2.37,0,0,0,332.689,363.769Z" transform="translate(-304.352 -325.685)" fill="#f8b114"/>
        <path id="Tracciato_16" data-name="Tracciato 16" d="M343.728,372.624a2.424,2.424,0,0,1,.224-.982c.132-.367.27-.731.4-1.1.1-.27.179-.545.289-.808a1.556,1.556,0,0,1,.235-.317,24.673,24.673,0,0,0,1.956,1.517c-.115.04-.141.146-.16.244-.082.416-.15.835-.235,1.251s-.205.854-.284,1.284c-.031.165-.125.339-.021.515-.407-.245-.823-.475-1.218-.74S344.123,372.916,343.728,372.624Z" transform="translate(-315.391 -334.54)" fill="#ef8219"/>
        <path id="Tracciato_17" data-name="Tracciato 17" d="M311.77,220.234c.134-.261.252-.531.4-.78.268-.439.552-.865.835-1.293.138-.209.289-.407.435-.611.083.014.164.005.237.089.272.311.56.609.839.915.118.131.223.273.334.409.033.04.07.077.1.115.16.162.324.32.477.489a1.7,1.7,0,0,1,.158.259c-.136.223-.263.452-.411.668a15.113,15.113,0,0,0-.882,1.469c-.009.017-.03.03-.045.045a.347.347,0,0,0-.178-.265c-.266-.157-.438-.439-.738-.55a.1.1,0,0,1-.033-.028c-.177-.224-.473-.284-.668-.486a2.414,2.414,0,0,1-.24-.216.416.416,0,0,0-.261-.188C312.017,220.254,311.894,220.247,311.77,220.234Z" transform="translate(-288.997 -209.099)" fill="#50b488"/>
        <path id="Tracciato_18" data-name="Tracciato 18" d="M494.537,207.819a.624.624,0,0,1-.419.423,7.627,7.627,0,0,1-.748.324c-.265.085-.473.261-.722.367-.23.1-.458.2-.687.294a.411.411,0,0,1-.132.009c-.292-.338-.578-.682-.881-1.011-.259-.28-.541-.541-.813-.811-.045-.045-.09-.094-.134-.141a.4.4,0,0,0,.379-.129.853.853,0,0,1,.224-.137,2.01,2.01,0,0,0,.285-.167,1.113,1.113,0,0,1,.358-.205,2.1,2.1,0,0,0,.4-.271,2.077,2.077,0,0,1,.191-.108c.007,0,.016,0,.021-.005.266-.224.64-.3.848-.609.176.179.362.348.524.539.372.439.734.888,1.1,1.335C494.4,207.608,494.466,207.716,494.537,207.819Z" transform="translate(-436.21 -199.262)" fill="#84388c"/>
        <path id="Tracciato_19" data-name="Tracciato 19" d="M410.59,172.156c.075-.087.235.021.284-.124.033-.1.07-.193.1-.291.059-.188.122-.376.172-.567a.634.634,0,0,1,.157-.334.183.183,0,0,0,.038-.078c.084-.32.174-.637.245-.959a1.327,1.327,0,0,1,.178-.465c.04-.061-.007-.181-.014-.273l.223-.005.038,0,1.169.014.078.014c.047,0,.1,0,.143,0,.345.026.687.052,1.03.084.115.01.23.033.345.05,0,.04.021.089.005.118-.054.094-.129.178-.179.273-.17.318-.338.64-.5.961a1.223,1.223,0,0,0-.08.205.572.572,0,0,1-.233.364.156.156,0,0,0-.068.124.537.537,0,0,1-.308.576.4.4,0,0,0-.056.047c.014.12.1.271-.1.32-.132,0-.264,0-.4-.009-.27-.021-.54-.057-.809-.073-.228-.014-.458-.01-.686-.007C411.1,172.128,410.846,172.144,410.59,172.156Z" transform="translate(-370.619 -169.048)" fill="#29347f"/>
        <path id="Tracciato_20" data-name="Tracciato 20" d="M301.383,306.53c-.177.113-.353.226-.533.336-.03.019-.082.014-.1.038-.136.172-.358.195-.524.318a3.982,3.982,0,0,1-.385.256c-.12.068-.251.115-.374.178a2.334,2.334,0,0,0-.418.237.493.493,0,0,1-.345.111,15.119,15.119,0,0,1-.475-1.766c-.085-.393-.165-.788-.247-1.183a.373.373,0,0,1,.005-.087.5.5,0,0,0,.406,0c.287-.113.585-.2.877-.3a.72.72,0,0,0,.127-.033,1.752,1.752,0,0,1,.539-.191,6.275,6.275,0,0,0,.764-.279c.049-.016.1-.026.148-.04.118.7.263,1.4.451,2.094C301.33,306.318,301.355,306.424,301.383,306.53Z" transform="translate(-277.607 -280.604)" fill="#88bc25"/>
        <path id="Tracciato_21" data-name="Tracciato 21" d="M351.083,185.933c-.233.061-.237.063-.324-.16-.07-.178-.134-.359-.2-.538-.124-.339-.245-.68-.367-1.02-.087-.242-.188-.48-.254-.729a3.555,3.555,0,0,1-.059-.546l.047-.033.045-.042,0,0,.04-.031c.442-.277.882-.559,1.33-.827.252-.151.519-.28.78-.416a1.219,1.219,0,0,1,.164-.059,2.237,2.237,0,0,0,.077.743,1.9,1.9,0,0,1,.054.28c.07.433.134.868.209,1.3a7.229,7.229,0,0,0,.195.917q-.7.457-1.4.915C351.305,185.764,351.2,185.851,351.083,185.933Z" transform="translate(-320.475 -179.348)" fill="#39bdee"/>
        <path id="Tracciato_22" data-name="Tracciato 22" d="M445.095,268.709a2.862,2.862,0,0,1-.021-.423q0-1.146,0-2.294c0-.043.005-.087.01-.141h.538v.242c0,.78-.005,1.559,0,2.337a1.931,1.931,0,0,0,.733,1.556,2.023,2.023,0,0,0,2.8-.278,2.657,2.657,0,0,0,.317-.454,1.267,1.267,0,0,0,.16-.639c0-.839,0-1.678,0-2.516v-.249h.536v5.08h-.529c-.01-.3,0-.59-.007-.908a.412.412,0,0,0-.075.056,2.521,2.521,0,0,1-1.625.832,2.491,2.491,0,0,1-2.838-2.2" transform="translate(-399.101 -248.994)" fill="#33363c"/>
        <path id="Tracciato_23" data-name="Tracciato 23" d="M513.792,268.47a2.541,2.541,0,1,1-2.534-2.541A2.55,2.55,0,0,1,513.792,268.47Zm-2.562,2.017a1.993,1.993,0,0,0,2.043-2.019,2.02,2.02,0,1,0-2.043,2.019Z" transform="translate(-451.664 -249.059)" fill="#33363c"/>
        <path id="Tracciato_24" data-name="Tracciato 24" d="M306.368,232.97c.124.014.247.019.369.043a.414.414,0,0,1,.261.188,2.624,2.624,0,0,0,.24.216c.195.2.491.261.668.486a.072.072,0,0,0,.033.028c.3.113.473.393.738.55a.351.351,0,0,1,.177.265l-.8,1.721a.834.834,0,0,1-.085.125c-.031-.033-.057-.082-.1-.1-.12-.049-.254-.071-.369-.129-.184-.092-.359-.2-.536-.306a.412.412,0,0,0-.12-.054,2.037,2.037,0,0,1-.626-.284,4.827,4.827,0,0,0-.818-.3.545.545,0,0,0-.176,0c.2-.48.4-.962.614-1.439.129-.287.282-.562.423-.842.017-.028.036-.056.054-.084S306.352,233,306.368,232.97Z" transform="translate(-283.595 -221.836)" fill="#42ad5f"/>
        <path id="Tracciato_25" data-name="Tracciato 25" d="M384.422,170.83a.782.782,0,0,0-.124.44c-.052.3-.068.614-.1.921-.009.073-.031.143-.045.216s-.03.144-.042.216c-.023.137-.047.275-.064.412-.026.2-.031.412-.077.613a.959.959,0,0,0,.009.411.059.059,0,0,1-.042.01c-.059.016-.12.031-.179.049l0,0-.315.082,0,0-.172.049h0l-.136.037-.62.195-.09.031-.005,0-.263.08-.085.054c-.131-.033-.146-.127-.131-.242a1.376,1.376,0,0,0,.01-.171c0-.322-.012-.644-.01-.966,0-.131.031-.263.035-.393.005-.244,0-.489,0-.733a1.2,1.2,0,0,0,.017-.3.4.4,0,0,1,.2-.5c.292-.087.583-.184.881-.258.376-.092.755-.165,1.135-.242A2.071,2.071,0,0,1,384.422,170.83Z" transform="translate(-346.948 -170.51)" fill="#2760aa"/>
        <path id="Tracciato_26" data-name="Tracciato 26" d="M323.549,210.765a1.7,1.7,0,0,0-.158-.259c-.151-.169-.317-.327-.477-.489a1.289,1.289,0,0,1-.1-.115c-.111-.136-.216-.278-.334-.409-.277-.306-.567-.6-.839-.915-.073-.084-.153-.075-.237-.089.214-.282.421-.569.644-.844.275-.338.562-.663.846-.994a.647.647,0,0,1,.084-.071.669.669,0,0,1,.177.144,4.54,4.54,0,0,0,.635.924.514.514,0,0,1,.111.214.446.446,0,0,0,.214.294.2.2,0,0,1,.068.084c.134.219.261.44.4.656a.4.4,0,0,0,.282.226c-.089.117-.174.235-.265.348-.265.332-.527.668-.8,1C323.713,210.567,323.7,210.724,323.549,210.765Z" transform="translate(-296.951 -200.038)" fill="#62bfb9"/>
        <path id="Tracciato_27" data-name="Tracciato 27" d="M553.657,252.01h.548v2.311h2.071v.545h-2.066c0,.082-.01.146-.01.211,0,.632,0,1.262,0,1.893a1.952,1.952,0,0,0,1.913,1.973c.05,0,.1.007.162.01v.531a1.077,1.077,0,0,1-.515-.026,2.53,2.53,0,0,1-2.074-2.085,2.692,2.692,0,0,1-.033-.487q0-2.339,0-4.676C553.647,252.146,553.654,252.081,553.657,252.01Z" transform="translate(-488.782 -237.562)" fill="#33363c"/>
        <path id="Tracciato_28" data-name="Tracciato 28" d="M372.881,173.8a.4.4,0,0,0-.2.5,1.209,1.209,0,0,1-.017.3c0,.244,0,.489,0,.733,0,.132-.035.263-.035.393,0,.322.007.644.01.966a1.115,1.115,0,0,1-.01.171c-.016.113,0,.207.131.242-.285.1-.573.205-.856.315-.12.047-.231.117-.35.171-.138.063-.277.118-.416.176-.04-.037-.11-.068-.115-.11-.04-.291-.068-.581-.1-.874-.035-.365-.059-.731-.1-1.095a5.428,5.428,0,0,1-.064-1.06l-.1-.057c.445-.171.889-.345,1.337-.51.247-.092.5-.172.75-.254A.5.5,0,0,1,372.881,173.8Z" transform="translate(-337.638 -172.962)" fill="#2970b6"/>
        <path id="Tracciato_29" data-name="Tracciato 29" d="M510.65,235.949c.01-.01.028-.019.029-.031.007-.084-.021-.207.023-.242a.933.933,0,0,1,.4-.214,3.76,3.76,0,0,0,1.11-.336,3.225,3.225,0,0,1,.526-.155c.083-.024.165-.059.251-.082.068-.019.141-.019.207-.042a2.211,2.211,0,0,0,.224-.108c.139.292.292.578.414.877.138.341.251.691.364,1.041a1.659,1.659,0,0,1,.037.338h-3.063C511,236.647,510.824,236.3,510.65,235.949Z" transform="translate(-453.267 -223.298)" fill="#c14793"/>
        <path id="Tracciato_30" data-name="Tracciato 30" d="M512.579,338.47l-.063-.245c-.014.01-.028.023-.04.033l-.238-.106c-.059-.026-.12-.054-.181-.078a.687.687,0,0,1-.125-.04,2.715,2.715,0,0,0-.982-.425.742.742,0,0,1-.134-.075c-.191-.092-.383-.184-.574-.275a.369.369,0,0,1-.061-.024.959.959,0,0,0-.491-.138c.144-.271.287-.543.439-.827,1.122,0,2.254,0,3.387,0,.024,0,.047.03.089.059-.221.493-.437.982-.66,1.469-.1.209-.2.411-.308.614A.353.353,0,0,1,512.579,338.47Z" transform="translate(-452.474 -307.159)" fill="#e5213c"/>
        <path id="Tracciato_31" data-name="Tracciato 31" d="M365.748,259.059v.5a2.346,2.346,0,0,1-1.265-.3,2.5,2.5,0,0,1-1.349-2.207c-.026-.823-.012-1.646-.014-2.469,0-.764,0-1.528,0-2.292v-.233h.56v.242q0,2.36,0,4.718a1.949,1.949,0,0,0,1.246,1.857A6.069,6.069,0,0,0,365.748,259.059Z" transform="translate(-331.409 -237.604)" fill="#33363c"/>
        <path id="Tracciato_32" data-name="Tracciato 32" d="M454.608,177.533c-.016.016-.031.047-.045.045-.238-.03-.322.174-.447.3-.252.265-.5.538-.738.813-.091.1-.155.228-.242.332-.127.153-.261.3-.4.446-.115.124-.237.242-.358.358a.24.24,0,0,0-.1.211l-.893-.32-.063-.03-.016,0-.01-.012-.1-.035-.017,0-.014-.012c-.035-.1-.05-.181.059-.249a.46.46,0,0,0,.111-.132c.155-.214.3-.437.465-.644.066-.084.165-.132.228-.232.073-.117.151-.231.219-.353a1.422,1.422,0,0,1,.247-.277c.139-.141.31-.254.334-.48.005-.054.073-.1.12-.15.07-.068.148-.127.132-.24A9.829,9.829,0,0,1,454.608,177.533Z" transform="translate(-404.114 -175.507)" fill="#29347f"/>
        <path id="Tracciato_33" data-name="Tracciato 33" d="M364.917,178.23l.1.057a5.562,5.562,0,0,0,.064,1.06c.038.364.063.729.1,1.095.028.292.056.583.1.874.005.042.075.073.115.11a.7.7,0,0,1-.1.077q-.5.271-1,.541a.091.091,0,0,1-.044,0,7.808,7.808,0,0,1-.195-.917c-.075-.433-.139-.867-.209-1.3a1.863,1.863,0,0,0-.054-.28,2.147,2.147,0,0,1-.077-.743c.176-.092.348-.191.527-.275C364.458,178.423,364.69,178.329,364.917,178.23Z" transform="translate(-331.892 -176.622)" fill="#2f99d5"/>
        <path id="Tracciato_34" data-name="Tracciato 34" d="M329.329,355.865c-.1.195-.2.39-.3.583-.226.425-.452.848-.682,1.269-.186.343-.379.682-.573,1.02-.019.031-.07.045-.106.066-.188-.214-.378-.426-.566-.64.012-.035.043-.075.033-.1a.471.471,0,0,1,.1-.414c.254-.421.515-.839.778-1.255.185-.292.379-.579.562-.874a.583.583,0,0,1,.275-.247C329.007,355.47,329.169,355.667,329.329,355.865Z" transform="translate(-301.659 -322.852)" fill="#ffd202"/>
        <path id="Tracciato_35" data-name="Tracciato 35" d="M357.426,270.651H356.9V265.51h.526Z" transform="translate(-326.273 -248.713)" fill="#33363c"/>
        <path id="Tracciato_36" data-name="Tracciato 36" d="M547.41,265.5h.527v5.141c-.076,0-.143.009-.207.009-.1,0-.205,0-.32,0Z" transform="translate(-483.629 -248.705)" fill="#33363c"/>
        <path id="Tracciato_37" data-name="Tracciato 37" d="M546.6,308.96c.028-.745.057-1.488.085-2.24h.332c-.038.889-.076,1.768-.117,2.659h-.454c-.485-.733-.978-1.472-1.469-2.21l-.049.011c-.045.733-.059,1.465-.087,2.2h-.331c.036-.888.073-1.772.111-2.664h.453l1.488,2.254C546.572,308.968,546.586,308.965,546.6,308.96Z" transform="translate(-481.234 -282.751)" fill="#373a3f"/>
        <path id="Tracciato_38" data-name="Tracciato 38" d="M371.73,309.22a5.441,5.441,0,0,1-.562-.11,1.088,1.088,0,0,1-.814-.9,1.873,1.873,0,0,1,.005-.682,1.28,1.28,0,0,1,1.256-1.086,2,2,0,0,1,.66.047,1.144,1.144,0,0,1,.9.961,1.661,1.661,0,0,1-.1.98,1.3,1.3,0,0,1-1.138.766,1.54,1.54,0,0,1-.2,0C371.734,309.2,371.732,309.21,371.73,309.22Zm1.109-1.436c0-.084,0-.151-.012-.217a.9.9,0,0,0-.6-.811,1.309,1.309,0,0,0-.874,0,.927.927,0,0,0-.524.456,1.4,1.4,0,0,0-.144.8.935.935,0,0,0,.807.9,1.772,1.772,0,0,0,.289.014.982.982,0,0,0,1.039-.893C372.835,307.946,372.834,307.856,372.839,307.784Z" transform="translate(-337.362 -282.511)" fill="#373a3f"/>
        <path id="Tracciato_39" data-name="Tracciato 39" d="M526.727,309.1c-.165-.024-.313-.035-.456-.07a1.157,1.157,0,0,1-.938-.976,1.429,1.429,0,0,1,.6-1.516,1.639,1.639,0,0,1,1.6-.073,1.2,1.2,0,0,1,.667,1.232,1.282,1.282,0,0,1-.957,1.314A3.838,3.838,0,0,1,526.727,309.1Zm0-.259a1.019,1.019,0,0,0,1.022-.663,1.471,1.471,0,0,0,.026-.94.837.837,0,0,0-.659-.623,1.779,1.779,0,0,0-.44-.031.96.96,0,0,0-.877.581,1.321,1.321,0,0,0-.124.693.929.929,0,0,0,.562.863A3.5,3.5,0,0,0,526.723,308.842Z" transform="translate(-465.37 -282.399)" fill="#373a3f"/>
        <path id="Tracciato_40" data-name="Tracciato 40" d="M444.228,306.652c.383,0,.752-.01,1.123,0a.61.61,0,0,1,.64.5.751.751,0,0,1-.439.818,3.627,3.627,0,0,1-.405.11c.268.414.526.816.8,1.237h-.383c-.277-.463-.553-.924-.851-1.42.15,0,.271.007.392,0a.544.544,0,0,0,.545-.58.361.361,0,0,0-.362-.4c-.228-.016-.459,0-.715,0-.063.8-.059,1.592-.09,2.4h-.358C444.157,308.439,444.191,307.561,444.228,306.652Z" transform="translate(-398.315 -282.692)" fill="#373a3f"/>
        <path id="Tracciato_41" data-name="Tracciato 41" d="M390.5,308.09l.8,1.234h-.383l-.849-1.418c.148,0,.27.007.39,0a.556.556,0,0,0,.552-.557.387.387,0,0,0-.365-.423,1.89,1.89,0,0,0-.244-.012c-.155,0-.31,0-.487,0-.024.816-.049,1.606-.073,2.409h-.36c.035-.886.07-1.77.106-2.668.381,0,.752-.01,1.121,0a.6.6,0,0,1,.64.5.745.745,0,0,1-.418.807A4.052,4.052,0,0,1,390.5,308.09Z" transform="translate(-353.175 -282.692)" fill="#373a3f"/>
        <path id="Tracciato_42" data-name="Tracciato 42" d="M476.075,306.929v.91h1.19v.261h-1.229c-.014.339-.026.653-.04.982h1.364c0,.092-.007.169-.012.258H475.63c.035-.881.071-1.758.108-2.67h1.705v.259Z" transform="translate(-424.341 -282.71)" fill="#373a3f"/>
        <path id="Tracciato_43" data-name="Tracciato 43" d="M426.919,309.078c-.009.1-.016.174-.023.258H425.18c.035-.879.071-1.758.108-2.67.56,0,1.126,0,1.705,0v.259h-1.359v.91h1.184v.261h-1.229c-.014.339-.026.653-.038.981Z" transform="translate(-382.671 -282.706)" fill="#373a3f"/>
        <path id="Tracciato_44" data-name="Tracciato 44" d="M506.045,309.151h1.516v.263h-1.947a.5.5,0,0,1,.11-.428c.46-.573.907-1.154,1.358-1.732.054-.07.1-.139.181-.244-.506-.016-.983-.005-1.471.007v-.258h1.883a.456.456,0,0,1-.106.423c-.48.6-.948,1.215-1.422,1.824C506.118,309.045,506.092,309.085,506.045,309.151Z" transform="translate(-449.098 -282.784)" fill="#373a3f"/>
        <path id="Tracciato_45" data-name="Tracciato 45" d="M463.439,309.318H463.1c.033-.882.068-1.761.1-2.656a1.061,1.061,0,0,1,.137-.017c.318,0,.639,0,.957-.005a.641.641,0,0,1,.609.87.83.83,0,0,1-.748.6c-.153.016-.31,0-.477,0l-.068-.242c.167-.009.312-.01.456-.024a.528.528,0,0,0,.515-.491.37.37,0,0,0-.369-.449c-.221.005-.442,0-.694,0C463.495,307.715,463.467,308.505,463.439,309.318Z" transform="translate(-413.991 -282.685)" fill="#373a3f"/>
        <path id="Tracciato_46" data-name="Tracciato 46" d="M383.773,272.77v.529H380.62v-.529Z" transform="translate(-345.865 -254.71)" fill="#373a3f"/>
        <path id="Tracciato_47" data-name="Tracciato 47" d="M357.84,306.451c.009.087.016.172.026.285a2.188,2.188,0,0,0-.265-.05,3.6,3.6,0,0,0-.64-.019,1.01,1.01,0,0,0-.9.886,1.864,1.864,0,0,0,.031.637.9.9,0,0,0,.872.7,1.968,1.968,0,0,0,.7-.071,1.03,1.03,0,0,1,.148-.023c-.014.108-.024.2-.038.3a2.661,2.661,0,0,1-1.067.03,1.2,1.2,0,0,1-1.034-1.232,1.537,1.537,0,0,1,.169-.8,1.333,1.333,0,0,1,1.142-.7A2.508,2.508,0,0,1,357.84,306.451Z" transform="translate(-325.265 -282.47)" fill="#373a3f"/>
        <path id="Tracciato_48" data-name="Tracciato 48" d="M401.739,309.051c-.007-.1-.012-.184-.019-.294.071.023.125.035.178.057a1.334,1.334,0,0,0,.634.082.4.4,0,0,0,.372-.24.387.387,0,0,0-.1-.449c-.17-.165-.357-.313-.532-.473a2.551,2.551,0,0,1-.327-.331.589.589,0,0,1,.211-.9,1.378,1.378,0,0,1,.785-.087,2.1,2.1,0,0,1,.268.054v.256c-.2-.019-.393-.045-.59-.051a.538.538,0,0,0-.252.064.338.338,0,0,0-.127.512,1.987,1.987,0,0,0,.289.3c.181.165.374.315.552.486a.627.627,0,0,1-.313,1.1A2.021,2.021,0,0,1,401.739,309.051Z" transform="translate(-363.293 -282.483)" fill="#373a3f"/>
        <path id="Tracciato_49" data-name="Tracciato 49" d="M488.585,307h-.835v-.256h2.019v.251h-.832c-.031.806-.063,1.6-.1,2.4h-.36C488.516,308.6,488.551,307.814,488.585,307Z" transform="translate(-434.352 -282.768)" fill="#373a3f"/>
        <path id="Tracciato_50" data-name="Tracciato 50" d="M572.821,247.4a1.1,1.1,0,0,1-2.193-.005,1.1,1.1,0,1,1,2.193.005Zm-.228-.009a.867.867,0,0,0-.872-.874.879.879,0,0,0-.868.884.866.866,0,0,0,.868.856A.853.853,0,0,0,572.593,247.394Z" transform="translate(-502.807 -232.846)" fill="#33363c"/>
        <path id="Tracciato_51" data-name="Tracciato 51" d="M457.3,306.74h.358c-.03.889-.059,1.766-.089,2.656H457.2C457.233,308.513,457.266,307.636,457.3,306.74Z" transform="translate(-409.118 -282.768)" fill="#33363c"/>
        <path id="Tracciato_52" data-name="Tracciato 52" d="M500.957,306.71h.362c-.031.888-.063,1.77-.094,2.663h-.365C500.891,308.487,500.924,307.611,500.957,306.71Z" transform="translate(-445.18 -282.743)" fill="#33363c"/>
        <path id="Tracciato_53" data-name="Tracciato 53" d="M414.039,309.407h-.369c.033-.881.066-1.763.1-2.657h.359C414.1,307.632,414.069,308.515,414.039,309.407Z" transform="translate(-373.163 -282.776)" fill="#33363c"/>
        <path id="Tracciato_54" data-name="Tracciato 54" d="M520.309,309.393h-.369c.033-.891.066-1.773.1-2.663h.359C520.368,307.619,520.339,308.5,520.309,309.393Z" transform="translate(-460.94 -282.76)" fill="#33363c"/>
        <path id="Tracciato_55" data-name="Tracciato 55" d="M562.291,309.391l-.153.009c-.066,0-.131,0-.218,0,.033-.895.066-1.777.1-2.67h.358C562.35,307.616,562.32,308.491,562.291,309.391Z" transform="translate(-495.614 -282.76)" fill="#33363c"/>
        <path id="Tracciato_56" data-name="Tracciato 56" d="M547.18,251.969a.421.421,0,0,1,.393.407.41.41,0,0,1-.411.386.383.383,0,0,1-.383-.4A.4.4,0,0,1,547.18,251.969Z" transform="translate(-483.108 -237.529)" fill="#373a3f"/>
        <path id="Tracciato_57" data-name="Tracciato 57" d="M357.063,252.377a.409.409,0,0,1-.409.386.384.384,0,0,1-.385-.4.4.4,0,0,1,.4-.392A.421.421,0,0,1,357.063,252.377Z" transform="translate(-325.752 -237.529)" fill="#373a3f"/>
        <path id="Tracciato_58" data-name="Tracciato 58" d="M541.083,291.391a.376.376,0,0,1-.352.364.361.361,0,0,1-.362-.346.347.347,0,0,1,.345-.358A.364.364,0,0,1,541.083,291.391Z" transform="translate(-477.814 -269.808)" fill="#373a3f"/>
        <path id="Tracciato_59" data-name="Tracciato 59" d="M390.61,189.8l.315-.082Z" transform="translate(-354.117 -186.112)" fill="#2970b6"/>
        <path id="Tracciato_60" data-name="Tracciato 60" d="M403.18,187.4c.106-.1.235-.033.352-.047Z" transform="translate(-364.499 -184.154)" fill="#2970b6"/>
        <path id="Tracciato_61" data-name="Tracciato 61" d="M383.2,192.09l.263-.08Z" transform="translate(-347.996 -188.004)" fill="#2f99d5"/>
        <path id="Tracciato_62" data-name="Tracciato 62" d="M401.61,187.707l.27-.037Z" transform="translate(-363.202 -184.419)" fill="#2970b6"/>
        <path id="Tracciato_63" data-name="Tracciato 63" d="M389.59,190.249l.172-.049C389.7,190.217,389.647,190.233,389.59,190.249Z" transform="translate(-353.274 -186.509)" fill="#2970b6"/>
        <path id="Tracciato_64" data-name="Tracciato 64" d="M392.41,189.5c.059-.016.12-.031.179-.049C392.53,189.467,392.471,189.483,392.41,189.5Z" transform="translate(-355.603 -185.889)" fill="#2970b6"/>
        <path id="Tracciato_65" data-name="Tracciato 65" d="M388.81,190.517l.136-.037Z" transform="translate(-352.63 -186.74)" fill="#2970b6"/>
        <path id="Tracciato_66" data-name="Tracciato 66" d="M311.244,233.49l-.054.084C311.207,233.546,311.225,233.518,311.244,233.49Z" transform="translate(-288.518 -222.265)" fill="#50b488"/>
        <path id="Tracciato_67" data-name="Tracciato 67" d="M457.7,195.06l.09.037C457.761,195.086,457.731,195.074,457.7,195.06Z" transform="translate(-409.531 -190.523)" fill="#29347f"/>
        <path id="Tracciato_68" data-name="Tracciato 68" d="M451.47,192.79l.1.035C451.538,192.813,451.5,192.8,451.47,192.79Z" transform="translate(-404.385 -188.648)" fill="#293278"/>
        <path id="Tracciato_69" data-name="Tracciato 69" d="M384.74,191.851l.09-.031Z" transform="translate(-349.268 -187.847)" fill="#2f99d5"/>
        <path id="Tracciato_70" data-name="Tracciato 70" d="M426.72,187.3l.087.016Z" transform="translate(-383.942 -184.114)" fill="#29347f"/>
        <path id="Tracciato_71" data-name="Tracciato 71" d="M471.56,180.848a.47.47,0,0,1-.051-.028Z" transform="translate(-420.938 -178.761)" fill="#29347f"/>
        <path id="Tracciato_72" data-name="Tracciato 72" d="M425.558,169.144l-.078-.014C425.5,169.135,425.532,169.14,425.558,169.144Z" transform="translate(-382.918 -169.106)" fill="#244596"/>
        <path id="Tracciato_73" data-name="Tracciato 73" d="M314.3,303.392c-.005-.014-.009-.028-.014-.042a.244.244,0,0,1,.019.026S314.307,303.387,314.3,303.392Z" transform="translate(-291.078 -279.968)" fill="#88bc25"/>
        <path id="Tracciato_74" data-name="Tracciato 74" d="M489.74,214.77l.04.04C489.766,214.8,489.754,214.782,489.74,214.77Z" transform="translate(-435.995 -206.803)" fill="#84388c"/>
        <path id="Tracciato_75" data-name="Tracciato 75" d="M504.328,204.329c-.012-.016-.024-.033-.038-.049A.539.539,0,0,1,504.328,204.329Z" transform="translate(-448.013 -198.139)" fill="#84388c"/>
        <path id="Tracciato_76" data-name="Tracciato 76" d="M452.21,193.05l.063.03C452.252,193.069,452.231,193.059,452.21,193.05Z" transform="translate(-404.997 -188.863)" fill="#293278"/>
        <path id="Tracciato_77" data-name="Tracciato 77" d="M394.19,189.218l.047-.028C394.221,189.2,394.206,189.207,394.19,189.218Z" transform="translate(-357.073 -185.675)" fill="#2760aa"/>
        <path id="Tracciato_78" data-name="Tracciato 78" d="M350.2,189.2l-.045.042C350.166,189.228,350.181,189.214,350.2,189.2Z" transform="translate(-320.698 -185.683)" fill="#66c4df"/>
        <path id="Tracciato_79" data-name="Tracciato 79" d="M350.47,189.01l-.04.031Z" transform="translate(-320.929 -185.526)" fill="#66c4df"/>
        <path id="Tracciato_80" data-name="Tracciato 80" d="M418.568,169.042l-.038,0Z" transform="translate(-377.178 -169.031)" fill="#244596"/>
        <path id="Tracciato_81" data-name="Tracciato 81" d="M574.505,249.9c-.009.157-.017.285-.024.421h-.258c0-.183-.005-.365-.007-.546s0-.369,0-.574a5.49,5.49,0,0,1,.562,0,.315.315,0,0,1,.228.513,1.16,1.16,0,0,1-.129.139c.106.146.212.294.325.449-.205.061-.35.03-.442-.155a.822.822,0,0,0-.132-.179A.46.46,0,0,0,574.505,249.9Zm-.007-.205c.122.024.221.023.27-.078a.184.184,0,0,0-.014-.16c-.066-.087-.162-.066-.256-.042Z" transform="translate(-505.77 -235.237)" fill="#33363c"/>
        <path id="Tracciato_82" data-name="Tracciato 82" d="M575.84,250.639v-.28c.094-.024.19-.045.256.042a.191.191,0,0,1,.014.16C576.061,250.664,575.962,250.664,575.84,250.639Z" transform="translate(-507.112 -236.181)" fill="#ece7e7"/>
      </g>
    </g>
  </g>
  <text id="Direttamente_a_casa_tua" data-name="Direttamente a casa tua" transform="translate(246 50)" fill="#fff" font-size="11" font-family="Degular-Medium, Degular" font-weight="500"><tspan x="0" y="0">Direttamente a casa tua</tspan></text>
  <text id="Corsi_lezioni_e_ripetizioni" data-name="Corsi, lezioni e ripetizioni" transform="translate(144 50)" fill="#fff" font-size="11" font-family="Degular-Medium, Degular" font-weight="500"><tspan x="-135" y="0">Corsi, lezioni e ripetizioni</tspan></text>
</svg>
